<svg width="461" height="293" viewBox="0 0 461 293" fill="none" xmlns="http://www.w3.org/2000/svg">
<g clip-path="url(#clip0_23_110)">
<path d="M456.44 5.09079e-05L0 5.82178L3.65656 292.506L460.096 286.684L456.44 5.09079e-05Z" fill="#071324"/>
<mask id="mask0_23_110" style="mask-type:alpha" maskUnits="userSpaceOnUse" x="0" y="0" width="461" height="293">
<path d="M456.44 5.09079e-05L0 5.82178L3.65656 292.506L460.096 286.684L456.44 5.09079e-05Z" fill="#EAD9CC"/>
</mask>
<g mask="url(#mask0_23_110)">
<g filter="url(#filter0_d_23_110)">
<path d="M179.332 -176.198L-412.62 132.363C-421.2 136.835 -422.602 146.193 -415.753 153.264L-203.737 372.142C-196.887 379.213 -184.379 381.32 -175.8 376.848L416.152 68.2869C424.732 63.8146 426.134 54.4568 419.285 47.3855L207.269 -171.492C200.419 -178.563 187.911 -180.67 179.332 -176.198Z" fill="#0F1E34"/>
</g>
<path fill-rule="evenodd" clip-rule="evenodd" d="M95.2027 32.7863C94.0609 31.6078 94.2945 30.0482 95.7246 29.3028L250.66 -51.4587C252.09 -52.204 254.174 -51.8528 255.316 -50.6742L258.921 -46.9525C260.063 -45.774 259.829 -44.2143 258.399 -43.469L103.464 37.2925C102.034 38.0379 99.9496 37.6867 98.8077 36.5082L95.2027 32.7863Z" fill="#465E82"/>
<path fill-rule="evenodd" clip-rule="evenodd" d="M-108.812 139.133C-109.954 137.954 -109.72 136.394 -108.29 135.649L16.9463 70.3682C18.3762 69.6228 20.4608 69.974 21.6024 71.1526L25.2076 74.8744C26.3492 76.0529 26.1155 77.6125 24.6855 78.3579L-100.551 143.639C-101.981 144.384 -104.065 144.033 -105.207 142.854L-108.812 139.133Z" fill="#465E82"/>
<path fill-rule="evenodd" clip-rule="evenodd" d="M107.068 45.0357C106.497 44.4464 106.614 43.6666 107.329 43.2939L178.34 6.27855C179.056 5.90587 180.097 6.08145 180.668 6.67073L183.761 9.86324C184.332 10.4525 184.215 11.2323 183.5 11.605L112.489 48.6204C111.774 48.9931 110.731 48.8175 110.161 48.2282L107.068 45.0357Z" fill="#213450"/>
<path fill-rule="evenodd" clip-rule="evenodd" d="M114.291 52.4934C113.72 51.9042 113.837 51.1244 114.552 50.7516L242.378 -15.8788C243.093 -16.2515 244.135 -16.0759 244.706 -15.4866L247.798 -12.2941C248.369 -11.7048 248.252 -10.925 247.537 -10.5523L119.712 56.0781C118.997 56.4508 117.954 56.2752 117.384 55.686L114.291 52.4934Z" fill="#213450"/>
<path fill-rule="evenodd" clip-rule="evenodd" d="M-89.7239 158.838C-90.2948 158.248 -90.1776 157.469 -89.4629 157.096L6.72759 106.956C7.44256 106.584 8.48487 106.759 9.05565 107.349L12.1481 110.541C12.7189 111.13 12.602 111.91 11.8871 112.282L-84.3033 162.423C-85.018 162.795 -86.0604 162.62 -86.6313 162.031L-89.7239 158.838Z" fill="#213450"/>
<path d="M185.798 -155.521L9.57076 -63.661C6.7109 -62.1703 6.24342 -59.051 8.52662 -56.6939L81.7783 18.9284C84.0615 21.2855 88.2308 21.9879 91.0907 20.4971L267.318 -71.3632C270.178 -72.8539 270.645 -75.9732 268.362 -78.3303L195.11 -153.953C192.827 -156.31 188.658 -157.012 185.798 -155.521Z" fill="#213450"/>
<path d="M-18.217 -49.1766L-194.444 42.6837C-197.304 44.1745 -197.772 47.2937 -195.489 49.6508L-122.237 125.273C-119.954 127.63 -115.784 128.333 -112.925 126.842L63.3029 34.9816C66.1627 33.4908 66.6302 30.3715 64.347 28.0145L-8.90468 -47.6079C-11.1879 -49.965 -15.3572 -50.6673 -18.217 -49.1766Z" fill="#213450"/>
<path d="M375.667 40.4921L-4.57523 238.697C-7.4351 240.188 -7.90258 243.307 -5.61937 245.664L2.1068 253.641C4.39001 255.998 8.55929 256.7 11.4192 255.209L391.662 57.0041C394.522 55.5133 394.989 52.3941 392.706 50.037L384.98 42.0607C382.696 39.7037 378.527 39.0013 375.667 40.4921Z" fill="#213450"/>
<path fill-rule="evenodd" clip-rule="evenodd" d="M24.7171 233.851C24.1463 233.262 24.2632 232.482 24.9781 232.109L61.1261 213.267C61.841 212.894 62.8834 213.07 63.4542 213.659L66.5466 216.851C67.1174 217.441 67.0006 218.22 66.2856 218.593L30.1376 237.435C29.4226 237.808 28.3803 237.633 27.8095 237.043L24.7171 233.851Z" fill="#465E82"/>
<path fill-rule="evenodd" clip-rule="evenodd" d="M111.876 188.419C111.305 187.83 111.421 187.05 112.137 186.677L184.439 148.988C185.154 148.616 186.196 148.791 186.767 149.381L189.86 152.573C190.43 153.162 190.313 153.943 189.599 154.315L117.296 192.003C116.581 192.376 115.539 192.2 114.968 191.611L111.876 188.419Z" fill="#465E82"/>
<path fill-rule="evenodd" clip-rule="evenodd" d="M256.494 113.036C255.923 112.446 256.04 111.666 256.755 111.294L329.057 73.6055C329.772 73.2328 330.815 73.4084 331.386 73.9976L334.478 77.1902C335.048 77.7794 334.932 78.5592 334.217 78.9321L261.914 116.621C261.199 116.993 260.157 116.818 259.586 116.228L256.494 113.036Z" fill="#465E82"/>
<path d="M14.38 247.253C16.876 245.952 17.2824 243.227 15.2877 241.168C13.2931 239.109 9.65271 238.494 7.15676 239.796C4.6608 241.097 4.25442 243.821 6.24908 245.88C8.24373 247.939 11.8841 248.554 14.38 247.253Z" fill="#465E82"/>
<path d="M355.029 19.1871L-25.2131 217.392C-28.073 218.883 -28.5405 222.002 -26.2573 224.359L-18.531 232.336C-16.2478 234.693 -12.0786 235.395 -9.2187 233.904L371.024 35.6992C373.884 34.2085 374.351 31.0892 372.068 28.7321L364.342 20.7558C362.059 18.3987 357.889 17.6964 355.029 19.1871Z" fill="#213450"/>
<path fill-rule="evenodd" clip-rule="evenodd" d="M4.07915 212.546C3.50834 211.956 3.62522 211.177 4.34018 210.804L23.7021 200.711C24.417 200.339 25.4593 200.514 26.0301 201.103L29.1226 204.297C29.6934 204.886 29.5765 205.666 28.8615 206.038L9.49967 216.131C8.78471 216.503 7.74239 216.328 7.17159 215.738L4.07915 212.546Z" fill="#465E82"/>
<path fill-rule="evenodd" clip-rule="evenodd" d="M91.2378 167.114C90.6669 166.524 90.7833 165.745 91.4987 165.372L132.166 144.174C132.881 143.801 133.923 143.976 134.494 144.566L137.586 147.759C138.157 148.348 138.04 149.128 137.325 149.5L96.6577 170.698C95.943 171.071 94.9006 170.895 94.3297 170.306L91.2378 167.114Z" fill="#465E82"/>
<path fill-rule="evenodd" clip-rule="evenodd" d="M235.856 91.7305C235.285 91.1414 235.402 90.3614 236.117 89.9885L291.633 61.0502C292.349 60.6776 293.39 60.8531 293.961 61.4424L297.054 64.6349C297.625 65.2242 297.507 66.004 296.793 66.3767L241.276 95.3149C240.561 95.6878 239.519 95.5127 238.948 94.9229L235.856 91.7305Z" fill="#465E82"/>
<path d="M334.391 -2.11927L-45.851 196.086C-48.7109 197.577 -49.1784 200.696 -46.8952 203.053L-39.169 211.029C-36.8858 213.386 -32.7165 214.089 -29.8567 212.598L350.386 14.3927C353.246 12.902 353.713 9.78273 351.43 7.42564L343.704 -0.550582C341.421 -2.90768 337.251 -3.61 334.391 -2.11927Z" fill="#213450"/>
<path fill-rule="evenodd" clip-rule="evenodd" d="M-16.5588 191.24C-17.1296 190.65 -17.0128 189.871 -16.2978 189.498L11.4571 175.03C12.1721 174.658 13.2144 174.833 13.7852 175.423L16.8776 178.615C17.4484 179.204 17.3315 179.984 16.6166 180.356L-11.1383 194.824C-11.8533 195.197 -12.8956 195.021 -13.4664 194.432L-16.5588 191.24Z" fill="#465E82"/>
<path fill-rule="evenodd" clip-rule="evenodd" d="M70.5995 145.807C70.0287 145.218 70.1455 144.438 70.8605 144.066L168.988 92.9159C169.703 92.5431 170.745 92.7181 171.316 93.3079L174.408 96.5003C174.979 97.0894 174.862 97.8695 174.147 98.2424L76.0197 149.392C75.305 149.765 74.2626 149.589 73.6919 149L70.5995 145.807Z" fill="#465E82"/>
<path fill-rule="evenodd" clip-rule="evenodd" d="M215.218 70.4242C214.647 69.8349 214.764 69.0551 215.479 68.6824L245.171 53.2052C245.886 52.8326 246.928 53.0081 247.499 53.5974L250.591 56.7899C251.162 57.3792 251.045 58.159 250.33 58.5317L220.639 74.0088C219.923 74.3815 218.881 74.2059 218.311 73.6167L215.218 70.4242Z" fill="#465E82"/>
<path d="M313.753 -23.4248L-66.4893 174.78C-69.3492 176.271 -69.8167 179.39 -67.5335 181.748L-59.8073 189.724C-57.5241 192.081 -53.3548 192.783 -50.495 191.292L329.748 -6.9128C332.607 -8.40353 333.075 -11.5228 330.792 -13.8799L323.066 -21.8561C320.782 -24.2132 316.613 -24.9155 313.753 -23.4248Z" fill="#213450"/>
<path fill-rule="evenodd" clip-rule="evenodd" d="M-37.1968 169.934C-37.7676 169.345 -37.6507 168.565 -36.9358 168.193L4.37715 146.658C5.09213 146.285 6.13443 146.461 6.70525 147.05L9.79767 150.243C10.3685 150.832 10.2516 151.612 9.53666 151.985L-31.7762 173.519C-32.4912 173.892 -33.5335 173.716 -34.1043 173.127L-37.1968 169.934Z" fill="#465E82"/>
<path fill-rule="evenodd" clip-rule="evenodd" d="M49.9615 124.502C49.3907 123.913 49.5076 123.133 50.2225 122.761L112.195 90.4566C112.911 90.0837 113.952 90.2595 114.523 90.8486L117.616 94.0409C118.187 94.6308 118.069 95.4101 117.355 95.783L55.3821 128.087C54.6671 128.459 53.6248 128.284 53.054 127.694L49.9615 124.502Z" fill="#465E82"/>
<path fill-rule="evenodd" clip-rule="evenodd" d="M194.58 49.1191C194.009 48.5298 194.126 47.7499 194.841 47.3773L296.842 -5.79179C297.557 -6.16444 298.599 -5.98883 299.17 -5.39958L302.262 -2.20708C302.833 -1.6178 302.716 -0.83798 302.001 -0.465303L200.001 52.7038C199.285 53.0764 198.243 52.9008 197.672 52.3115L194.58 49.1191Z" fill="#465E82"/>
<g filter="url(#filter1_d_23_110)">
<path d="M323.927 50.8705L155.505 138.673C146.926 143.146 145.523 152.505 152.372 159.577L328.26 341.181C335.11 348.252 347.617 350.359 356.196 345.887L524.618 258.084C533.198 253.611 534.6 244.253 527.751 237.181L351.863 55.5766C345.014 48.5048 332.506 46.3978 323.927 50.8705Z" fill="#0F1E34"/>
</g>
<path fill-rule="evenodd" clip-rule="evenodd" d="M235.311 214.113C234.169 212.935 234.404 211.375 235.833 210.63L321.685 165.872C323.115 165.127 325.199 165.478 326.341 166.657L328.914 169.314C330.056 170.492 329.822 172.052 328.392 172.797L242.54 217.555C241.11 218.3 239.026 217.949 237.884 216.77L235.311 214.113Z" fill="#465E82"/>
<path fill-rule="evenodd" clip-rule="evenodd" d="M327.144 308.93C326.003 307.752 326.236 306.192 327.666 305.447L454.191 239.486C455.621 238.741 457.705 239.091 458.847 240.27L461.42 242.927C462.562 244.105 462.327 245.665 460.898 246.41L334.373 312.372C332.943 313.117 330.858 312.766 329.717 311.587L327.144 308.93Z" fill="#465E82"/>
<path fill-rule="evenodd" clip-rule="evenodd" d="M245.112 224.232C244.541 223.643 244.658 222.863 245.373 222.49L345.435 170.326C346.15 169.953 347.192 170.128 347.762 170.718L349.823 172.845C350.394 173.434 350.277 174.214 349.562 174.587L249.5 226.752C248.785 227.124 247.743 226.949 247.172 226.359L245.112 224.232Z" fill="#213450"/>
<path fill-rule="evenodd" clip-rule="evenodd" d="M336.945 319.049C336.375 318.46 336.491 317.68 337.206 317.308L449.534 258.748C450.249 258.375 451.291 258.551 451.862 259.14L453.923 261.267C454.493 261.857 454.376 262.636 453.661 263.009L341.333 321.569C340.619 321.942 339.576 321.766 339.005 321.177L336.945 319.049Z" fill="#213450"/>
<path fill-rule="evenodd" clip-rule="evenodd" d="M251.303 230.625C250.732 230.035 250.849 229.256 251.564 228.883L385.842 158.879C386.558 158.507 387.6 158.682 388.17 159.272L390.231 161.399C390.802 161.988 390.685 162.768 389.97 163.141L255.691 233.144C254.977 233.517 253.934 233.341 253.363 232.752L251.303 230.625Z" fill="#213450"/>
<path fill-rule="evenodd" clip-rule="evenodd" d="M343.136 325.442C342.565 324.852 342.682 324.073 343.397 323.7L423.445 281.969C424.16 281.596 425.202 281.771 425.773 282.361L427.833 284.489C428.404 285.078 428.287 285.858 427.572 286.23L347.524 327.961C346.81 328.334 345.767 328.158 345.196 327.569L343.136 325.442Z" fill="#213450"/>
<path d="M327.167 69.2227L178.06 146.956C175.2 148.447 174.733 151.567 177.016 153.924L223.435 201.852C225.718 204.209 229.887 204.911 232.747 203.421L381.854 125.687C384.714 124.196 385.182 121.077 382.899 118.719L336.479 70.7914C334.196 68.4341 330.027 67.7318 327.167 69.2227Z" fill="#213450"/>
<path d="M419.001 164.04L269.893 241.773C267.034 243.264 266.566 246.384 268.849 248.741L315.269 296.669C317.552 299.026 321.721 299.729 324.581 298.238L473.688 220.504C476.547 219.013 477.015 215.894 474.732 213.536L428.313 165.609C426.029 163.251 421.86 162.549 419.001 164.04Z" fill="#213450"/>
<path d="M280.626 120.742L260.335 131.32L260.334 131.32C258.095 132.491 257.741 134.946 259.544 136.81L272.613 150.304L272.612 150.304C274.418 152.165 277.695 152.728 279.937 151.563L300.229 140.984L300.228 140.984C302.466 139.814 302.82 137.359 301.019 135.495L287.949 122.001C286.142 120.139 282.865 119.577 280.623 120.742L280.626 120.742ZM278.821 126.76L278.821 126.761C280.5 125.884 282.961 126.307 284.315 127.704C285.668 129.101 285.402 130.945 283.721 131.821C282.041 132.697 279.58 132.275 278.227 130.877L278.227 130.878C276.875 129.481 277.14 127.638 278.819 126.761L278.821 126.76ZM278.306 149.875C277.184 150.459 275.545 150.178 274.642 149.245L271.189 145.681L272.899 138.102L272.898 138.101C273.242 136.585 275.113 135.677 277.168 136.027L284.595 137.295L283.147 147.349L278.306 149.875ZM298.992 136.552C299.895 137.483 299.718 138.712 298.597 139.296L286.018 145.854L287.519 135.44L287.518 135.439C287.873 134.057 289.522 133.192 291.419 133.393L296.431 133.907L298.992 136.552Z" fill="#465E82"/>
<path d="M372.459 215.561L352.168 226.139L352.168 226.139C349.928 227.309 349.574 229.765 351.377 231.628L364.446 245.123L364.445 245.123C366.251 246.984 369.528 247.547 371.77 246.381L392.061 235.802L392.061 235.803C394.299 234.633 394.653 232.178 392.851 230.314L379.782 216.82C377.975 214.958 374.698 214.396 372.456 215.561L372.459 215.561ZM370.654 221.579L370.653 221.58C372.333 220.702 374.794 221.126 376.148 222.523C377.5 223.92 377.235 225.764 375.554 226.639C373.873 227.516 371.413 227.093 370.061 225.696L370.06 225.697C368.708 224.299 368.973 222.457 370.652 221.58L370.654 221.579ZM370.139 244.694L370.138 244.694C369.017 245.278 367.378 244.997 366.474 244.064L363.022 240.5L364.732 232.921L364.732 232.92C365.076 231.404 366.946 230.496 369.001 230.845L376.428 232.114L374.98 242.168L370.139 244.694ZM390.826 231.371C391.727 232.302 391.55 233.531 390.43 234.115L377.851 240.673L379.352 230.259L379.352 230.258C379.706 228.876 381.355 228.01 383.251 228.212L388.264 228.726L390.826 231.371Z" fill="#465E82"/>
</g>
</g>
<defs>
<filter id="filter0_d_23_110" x="-470.097" y="-203.546" width="943.726" height="657.741" filterUnits="userSpaceOnUse" color-interpolation-filters="sRGB">
<feFlood flood-opacity="0" result="BackgroundImageFix"/>
<feColorMatrix in="SourceAlpha" type="matrix" values="0 0 0 0 0 0 0 0 0 0 0 0 0 0 0 0 0 0 127 0" result="hardAlpha"/>
<feOffset dy="25"/>
<feGaussianBlur stdDeviation="25"/>
<feColorMatrix type="matrix" values="0 0 0 0 0.021875 0 0 0 0 0.0395148 0 0 0 0 0.125 0 0 0 1 0"/>
<feBlend mode="normal" in2="BackgroundImageFix" result="effect1_dropShadow_23_110"/>
<feBlend mode="normal" in="SourceGraphic" in2="effect1_dropShadow_23_110" result="shape"/>
</filter>
<filter id="filter1_d_23_110" x="98.0282" y="23.5225" width="484.067" height="399.712" filterUnits="userSpaceOnUse" color-interpolation-filters="sRGB">
<feFlood flood-opacity="0" result="BackgroundImageFix"/>
<feColorMatrix in="SourceAlpha" type="matrix" values="0 0 0 0 0 0 0 0 0 0 0 0 0 0 0 0 0 0 127 0" result="hardAlpha"/>
<feOffset dy="25"/>
<feGaussianBlur stdDeviation="25"/>
<feColorMatrix type="matrix" values="0 0 0 0 0.021875 0 0 0 0 0.0395148 0 0 0 0 0.125 0 0 0 1 0"/>
<feBlend mode="normal" in2="BackgroundImageFix" result="effect1_dropShadow_23_110"/>
<feBlend mode="normal" in="SourceGraphic" in2="effect1_dropShadow_23_110" result="shape"/>
</filter>
<clipPath id="clip0_23_110">
<rect y="5.82178" width="456.477" height="286.708" rx="8" transform="rotate(-0.730748 0 5.82178)" fill="white"/>
</clipPath>
</defs>
</svg>
